<?xml version="1.0" standalone="no"?>
<!DOCTYPE svg PUBLIC "-//W3C//DTD SVG 20010904//EN"
 "http://www.w3.org/TR/2001/REC-SVG-20010904/DTD/svg10.dtd">
<svg version="1.0" xmlns="http://www.w3.org/2000/svg"
 width="1280.000000pt" height="975.000000pt" viewBox="0 0 1280.000000 975.000000"
 preserveAspectRatio="xMidYMid meet">
<metadata>
Created by potrace 1.15, written by Peter Selinger 2001-2017
</metadata>
<g transform="translate(0.000000,975.000000) scale(0.100000,-0.100000)"
fill="#000000" stroke="none">
<path d="M549 9183 c-33 -20 -59 -63 -59 -96 0 -14 18 -51 39 -83 36 -55 39
-66 46 -154 5 -61 14 -108 26 -132 11 -21 19 -53 19 -72 0 -30 6 -38 43 -60
l42 -26 -36 0 c-35 0 -36 -1 -48 -53 -13 -61 -44 -96 -104 -121 -33 -14 -42
-14 -65 -2 -15 8 -36 23 -46 35 -16 18 -17 25 -8 46 14 29 -2 34 -18 6 -24
-46 -4 -85 66 -132 12 -8 54 -54 94 -104 351 -431 707 -746 1145 -1012 17 -10
31 -28 33 -41 3 -19 -7 -27 -60 -52 -35 -17 -70 -30 -78 -30 -12 0 -12 -2 -2
-9 15 -9 79 1 126 19 49 18 145 -15 183 -63 26 -33 153 -112 518 -322 553
-317 781 -463 1327 -847 167 -117 211 -154 293 -244 56 -61 105 -125 116 -152
41 -94 60 -279 78 -740 8 -202 2 -288 -22 -307 -6 -5 -18 -22 -25 -36 -31 -59
-56 -80 -117 -94 -33 -8 -65 -14 -72 -15 -6 0 -27 23 -47 50 -20 28 -40 50
-45 50 -6 0 -3 -22 5 -50 8 -28 13 -54 10 -59 -3 -5 -25 -13 -48 -19 -39 -10
-139 -67 -146 -84 -2 -3 -18 -1 -35 6 -18 8 -50 16 -72 19 l-40 6 35 -29 c19
-16 42 -32 52 -35 11 -4 16 -16 15 -38 -1 -18 -5 -31 -10 -30 -102 24 -117 25
-147 13 -29 -12 -60 -54 -60 -80 0 -6 -13 -30 -28 -53 -16 -23 -57 -103 -91
-177 -34 -74 -77 -158 -96 -187 -30 -45 -39 -52 -72 -55 -35 -3 -38 -5 -44
-43 -9 -51 -42 -126 -62 -143 -23 -19 -49 -7 -72 30 -17 28 -20 54 -21 178 -1
80 -7 172 -14 205 -12 59 -41 129 -58 139 -5 3 -1 -11 9 -32 31 -62 34 -143
10 -279 -12 -66 -21 -141 -21 -165 0 -53 28 -114 69 -152 37 -35 39 -65 8 -94
-20 -19 -27 -20 -55 -10 -36 14 -59 0 -67 -40 -7 -37 -49 -89 -100 -125 -29
-20 -51 -43 -53 -55 -4 -27 -13 -28 -35 -2 -26 30 -59 25 -94 -15 -35 -39 -62
-45 -70 -15 -3 11 -10 17 -15 14 -5 -3 -4 3 4 15 7 12 15 21 19 21 15 0 50 44
45 57 -4 8 5 29 19 45 31 36 27 44 -14 30 -17 -6 -31 -9 -31 -6 0 2 17 30 37
61 26 39 50 62 78 74 22 10 41 17 42 15 2 -2 -4 -22 -12 -46 -20 -58 -19 -92
6 -151 24 -55 36 -59 68 -25 l22 24 -20 33 c-25 41 -26 77 -3 144 17 50 17 50
77 62 l60 12 -57 -5 c-32 -2 -58 -2 -58 0 0 3 7 31 15 63 17 64 20 190 5 213
-6 10 -8 4 -4 -21 8 -49 -10 -130 -47 -211 -29 -61 -34 -67 -72 -77 -23 -5
-42 -9 -44 -8 -1 2 3 21 9 44 8 34 15 43 37 46 15 2 7 5 -20 6 -66 2 -192 -33
-278 -76 -77 -39 -210 -153 -236 -203 -32 -61 -95 -99 -82 -49 3 11 1 17 -4
13 -5 -3 -9 3 -9 14 0 11 24 43 53 72 41 43 45 49 17 30 -19 -14 -63 -53 -97
-87 -34 -35 -64 -63 -66 -63 -2 0 -13 14 -25 30 -19 25 -21 34 -12 53 11 21
10 21 -4 3 -16 -19 -16 -19 -42 5 l-26 24 4 -55 c2 -30 8 -64 12 -75 6 -17 5
-17 -10 2 -34 46 -47 20 -14 -27 12 -17 16 -31 10 -35 -16 -10 -50 14 -50 35
0 14 -7 20 -22 20 -12 0 -30 7 -40 17 -26 23 -31 11 -17 -38 7 -24 13 -49 14
-55 0 -6 8 -22 18 -37 9 -14 17 -29 17 -32 0 -13 -29 -2 -83 30 -66 40 -67 40
-67 20 0 -20 26 -61 63 -101 19 -21 25 -34 17 -39 -6 -4 -17 -1 -25 5 -8 6
-19 9 -24 5 -6 -3 -28 4 -51 15 -30 16 -40 17 -40 7 0 -15 52 -91 69 -102 16
-9 13 -25 -4 -25 -8 0 -19 9 -26 21 -8 15 -14 18 -22 10 -8 -8 -17 -5 -34 11
-22 21 -23 21 -23 1 0 -11 11 -41 24 -66 13 -26 19 -50 14 -53 -5 -3 -25 11
-45 32 l-35 38 4 -45 c3 -24 8 -52 12 -61 14 -32 -27 -21 -57 14 l-29 33 6
-52 c4 -43 2 -54 -12 -62 -13 -7 -24 -3 -46 17 l-29 27 6 -37 c5 -32 3 -37
-18 -42 -13 -3 -31 -3 -40 1 -14 5 -16 2 -11 -15 9 -28 -12 -68 -27 -53 -18
18 -25 13 -23 -21 1 -26 -3 -33 -16 -32 -20 2 -22 -4 -9 -25 12 -18 -4 -51
-23 -51 -19 0 -8 -48 14 -60 10 -5 20 -6 24 -3 3 3 6 -5 6 -20 0 -35 12 -40
61 -23 34 12 46 12 58 3 11 -9 13 -9 8 0 -11 17 11 27 28 13 12 -10 15 -10 15
0 0 9 7 7 20 -5 19 -18 20 -17 20 3 0 31 21 27 44 -7 11 -15 28 -34 39 -41 18
-11 19 -10 12 7 -23 54 -16 90 13 61 9 -9 12 -8 12 5 0 20 30 23 49 4 11 -10
13 -9 8 5 -8 24 32 37 45 14 13 -23 31 -20 23 4 -5 16 -2 20 16 20 12 0 31 -8
42 -18 19 -16 20 -16 14 6 -4 17 0 23 19 28 14 4 31 1 39 -6 10 -9 15 -9 15
-1 0 6 11 11 25 11 34 0 31 -10 -11 -40 -20 -14 -60 -44 -90 -68 -30 -23 -54
-39 -54 -35 0 4 -7 -3 -16 -15 -8 -12 -19 -20 -24 -17 -4 3 -11 -2 -14 -11 -3
-8 -10 -13 -15 -10 -5 3 -12 -1 -15 -10 -4 -9 -13 -14 -21 -10 -10 4 -15 -1
-15 -14 0 -25 -17 -26 -23 -3 -3 10 -5 4 -6 -14 -1 -24 -5 -31 -16 -27 -10 4
-15 0 -15 -12 0 -16 -2 -17 -10 -4 -8 13 -10 12 -10 -2 0 -10 -4 -18 -10 -18
-5 0 -10 9 -10 21 0 11 -5 17 -10 14 -6 -3 -10 -15 -10 -26 0 -10 -4 -19 -10
-19 -5 0 -10 -8 -10 -18 0 -10 -11 -29 -24 -41 -13 -12 -23 -30 -22 -39 3 -18
54 -40 93 -41 12 -1 24 -9 28 -21 7 -24 54 -62 66 -54 5 3 -1 18 -13 34 -34
47 -12 48 28 2 57 -67 80 -73 42 -12 -27 44 -30 53 -17 64 15 15 369 197 369
191 0 -2 -5 -15 -11 -28 -13 -28 -48 -47 -86 -47 -21 0 -24 -3 -15 -12 31 -31
133 38 143 97 3 12 22 29 49 42 46 21 46 21 100 3 30 -11 64 -19 74 -20 17 0
15 5 -13 34 -31 32 -32 34 -13 40 11 4 37 18 56 31 51 35 62 26 69 -56 13
-156 -34 -268 -123 -290 -24 -6 -23 -7 6 -8 75 -3 154 118 176 268 8 54 16 81
25 81 7 0 13 5 13 10 0 6 -4 10 -10 10 -5 0 -10 16 -10 35 0 34 12 46 25 25 9
-15 25 -12 25 5 0 18 12 19 28 3 9 -9 21 -8 52 2 44 15 60 9 40 -15 -17 -20 7
-29 65 -22 55 6 80 23 64 43 -9 11 -8 14 5 14 9 0 16 8 16 19 0 26 5 28 82 41
44 7 75 7 92 0 34 -12 62 13 72 64 3 20 9 36 13 36 14 0 71 -60 71 -74 0 -8
-18 -33 -40 -55 -29 -28 -40 -48 -40 -69 0 -32 26 -62 55 -62 15 0 16 -2 4
-17 -8 -9 -32 -24 -54 -34 l-40 -19 33 0 c63 0 132 51 132 98 0 6 21 47 48 93
26 46 54 104 62 128 14 40 22 48 88 81 59 31 81 37 112 33 29 -4 42 -1 54 13
8 11 23 29 33 41 10 11 63 40 118 64 55 24 150 71 210 105 103 57 156 86 197
106 9 4 31 5 47 2 20 -4 39 -1 56 10 13 9 43 16 65 16 27 0 43 5 46 15 4 8 18
15 33 15 15 0 36 6 46 14 18 13 17 14 -7 35 l-25 22 28 29 c16 16 29 35 29 44
0 15 37 32 48 22 3 -4 7 -25 9 -47 2 -22 9 -53 15 -67 l11 -27 10 33 c5 17 13
32 16 32 3 0 17 -28 30 -62 13 -35 34 -81 46 -103 73 -130 87 -163 75 -185 -6
-12 -31 -30 -54 -40 -40 -17 -86 -61 -86 -82 0 -6 -26 -53 -58 -107 -33 -53
-87 -151 -121 -219 -36 -70 -73 -130 -87 -139 -13 -8 -24 -21 -24 -27 0 -13
-59 -64 -97 -84 -12 -7 -33 -12 -46 -12 -14 0 -30 -6 -36 -13 -18 -22 17 -44
80 -52 l56 -7 -44 -84 c-34 -67 -43 -95 -43 -135 0 -28 -11 -83 -24 -122 -13
-40 -31 -119 -40 -176 -10 -58 -20 -109 -23 -115 -20 -34 -158 -186 -172 -191
-10 -3 -46 -40 -80 -83 -51 -64 -70 -80 -104 -90 -98 -28 -145 -123 -102 -206
8 -15 15 -36 15 -45 1 -9 7 -27 15 -41 14 -25 14 -25 15 13 0 74 66 162 89
119 9 -18 81 -47 81 -33 0 3 16 15 36 26 20 11 40 30 45 42 7 18 16 23 43 23
53 0 87 34 94 95 3 34 14 61 33 85 16 20 36 57 45 83 12 37 23 51 48 61 40 17
83 79 92 133 5 31 10 40 21 36 12 -5 14 -16 9 -54 -4 -30 -3 -49 3 -49 5 0 13
20 17 45 3 25 15 56 25 69 16 20 19 41 19 129 0 67 5 120 15 147 8 23 17 71
19 107 2 51 9 73 33 106 25 37 33 42 61 39 23 -3 32 1 32 11 0 8 30 41 68 73
37 32 105 95 152 140 58 56 97 85 123 92 20 6 37 8 37 6 0 -3 -16 -26 -36 -52
l-36 -47 34 -3 c30 -3 39 -11 68 -58 33 -55 71 -84 110 -84 26 0 26 16 -1 23
-13 4 -20 11 -16 20 3 7 -4 19 -14 25 -30 19 -23 48 17 71 19 12 37 21 40 21
3 0 2 -22 -2 -49 -9 -69 34 -141 84 -141 l24 0 -26 31 c-16 19 -26 43 -26 63
0 35 24 76 45 76 7 0 23 11 34 25 16 21 20 41 19 101 0 41 6 89 13 105 11 27
16 30 42 25 28 -6 29 -5 23 27 -5 27 -1 38 23 64 27 30 30 31 72 22 31 -7 56
-7 87 2 38 11 44 10 57 -7 8 -10 15 -23 15 -28 0 -9 -65 -3 -95 9 -18 8 -19 7
-6 -9 21 -26 66 -46 102 -46 22 0 40 9 63 33 38 40 75 57 126 57 21 0 40 3 42
8 2 4 23 20 48 37 25 16 48 35 53 42 52 82 159 173 203 173 34 0 144 41 194
72 96 59 119 160 62 260 -32 55 -89 98 -130 98 -21 0 -102 83 -102 105 0 7 52
38 115 69 l114 57 103 -62 c57 -35 120 -78 142 -97 21 -19 83 -63 137 -98 54
-35 104 -74 110 -86 7 -13 55 -67 107 -120 86 -88 96 -102 99 -140 5 -58 19
-102 56 -171 36 -68 74 -104 122 -113 52 -9 74 0 166 69 46 35 92 68 102 73
10 6 82 73 160 150 88 86 175 161 229 197 48 31 90 57 94 57 3 0 3 -8 -1 -17
-9 -23 -38 -136 -60 -238 -10 -44 -21 -87 -26 -96 -4 -8 -34 -23 -66 -32 -43
-11 -69 -27 -98 -56 -38 -40 -39 -55 -1 -26 27 20 31 19 44 -10 6 -13 23 -27
37 -31 30 -7 30 -6 5 -52 -30 -56 -57 -83 -151 -150 -81 -59 -109 -92 -109
-129 0 -9 -12 -46 -26 -81 -19 -48 -24 -75 -20 -103 4 -24 1 -47 -9 -65 -21
-41 -19 -132 4 -174 19 -36 66 -78 77 -68 3 4 -4 20 -16 36 -42 57 -32 153 17
160 29 4 83 67 83 95 -1 12 -7 33 -15 47 -8 14 -14 33 -15 44 0 26 47 94 94
136 37 33 38 33 21 7 -10 -16 -25 -59 -32 -95 -26 -128 -27 -146 -4 -197 11
-26 21 -58 21 -70 0 -76 76 -195 124 -195 19 0 19 1 -2 23 -25 26 -52 88 -52
118 0 11 11 30 25 41 59 46 67 114 19 158 -13 13 -24 27 -24 32 0 16 81 172
105 204 16 20 38 35 64 42 45 11 49 5 31 -43 -12 -32 -31 -148 -32 -197 0 -21
9 -56 21 -78 11 -22 21 -52 21 -66 0 -36 23 -85 60 -127 43 -49 68 -50 35 -1
-14 20 -30 54 -35 75 -10 38 -10 40 31 79 35 34 40 43 34 67 -3 15 -18 40 -32
55 -26 27 -26 28 -10 70 9 24 19 63 23 88 8 52 19 70 45 70 28 0 52 46 60 114
4 34 12 105 19 159 6 54 12 148 13 208 1 60 4 109 5 109 12 0 172 -85 172 -91
0 -4 11 -10 25 -13 13 -3 40 -19 58 -35 18 -17 46 -33 63 -37 16 -4 36 -12 44
-19 8 -6 51 -24 95 -38 44 -15 82 -32 83 -37 2 -6 11 -10 20 -11 10 0 31 -9
47 -20 17 -10 35 -20 40 -23 41 -15 110 -28 165 -30 36 -2 96 -9 134 -15 38
-7 83 -8 100 -4 17 4 74 8 126 8 109 2 178 18 269 64 64 33 175 127 166 141
-3 4 40 7 95 6 113 -2 112 3 -7 30 -84 19 -110 37 -50 34 17 -1 66 -1 107 0
l75 2 -55 14 c-30 8 -77 17 -105 22 -43 6 -50 11 -49 29 1 12 -22 52 -50 90
-46 60 -69 82 -132 119 -17 10 -19 22 -16 124 2 71 0 110 -6 106 -6 -3 -13
-28 -17 -54 -11 -82 -27 -86 -23 -5 2 40 2 71 1 69 -7 -7 -43 -162 -43 -185 0
-14 -7 -34 -15 -45 -13 -17 -16 -17 -64 -1 l-51 17 5 51 c2 29 7 86 9 127 l5
75 -29 -90 c-16 -49 -30 -102 -30 -117 0 -16 -3 -28 -7 -28 -25 1 -168 49
-168 56 1 5 4 36 8 69 21 169 21 169 -17 70 -20 -49 -36 -101 -36 -114 0 -17
-4 -22 -16 -17 -8 3 -54 17 -101 31 -47 13 -89 27 -92 30 -3 3 1 20 8 38 7 18
23 68 35 112 13 44 26 91 30 105 4 14 -15 -15 -44 -65 -28 -49 -53 -101 -57
-115 -7 -30 -31 -60 -49 -60 -7 0 -23 13 -35 29 -12 16 -35 32 -52 35 -17 3
-45 17 -63 31 -18 14 -37 25 -42 25 -39 0 -55 100 -23 141 17 22 35 65 86 204
4 11 -5 2 -21 -20 -15 -22 -42 -58 -60 -80 -17 -22 -38 -56 -46 -75 -8 -19
-26 -41 -41 -49 -23 -12 -28 -11 -64 15 -21 16 -52 44 -69 62 -17 17 -41 32
-52 32 -11 0 -41 16 -66 35 -25 19 -46 32 -46 28 0 -3 -8 1 -18 10 -29 26 -21
92 16 131 16 17 42 54 58 81 15 28 41 70 58 95 27 41 22 37 -62 -39 -50 -46
-94 -93 -98 -103 -6 -19 -45 -44 -80 -49 -12 -3 -33 8 -53 26 -33 30 -44 42
-103 105 -43 46 -131 124 -140 125 -30 1 -9 76 27 95 14 8 50 45 80 84 30 39
67 86 82 105 25 32 22 30 -37 -16 -36 -27 -83 -62 -106 -77 -23 -15 -47 -38
-54 -51 -8 -15 -29 -30 -51 -36 -35 -11 -39 -10 -103 39 -36 27 -95 64 -131
82 l-65 32 -40 -26 c-22 -14 -44 -26 -50 -26 -6 0 -52 21 -103 46 -103 52
-311 124 -432 149 -44 9 -120 19 -170 22 l-90 6 140 28 c77 16 205 33 285 39
169 13 206 16 274 25 28 3 46 3 40 -2 -7 -4 -13 -17 -15 -28 -5 -23 -77 -63
-131 -72 -52 -8 -48 -22 5 -16 95 11 169 45 189 85 4 10 12 26 16 35 5 10 23
27 41 38 17 11 62 40 98 64 109 72 582 292 822 382 80 30 115 76 109 146 l-3
45 30 -7 c16 -3 64 -8 105 -11 l75 -6 22 35 c16 26 37 41 79 56 31 12 68 31
83 42 110 84 182 119 246 119 38 0 81 18 257 105 116 58 250 129 297 159 47
29 133 79 191 109 71 38 116 68 137 94 22 29 54 49 119 78 49 21 94 42 101 47
19 15 172 87 283 135 136 58 182 85 200 118 14 25 13 29 -11 49 -15 11 -34 26
-44 32 -18 10 -18 12 3 46 12 19 22 45 22 56 0 12 6 34 12 49 11 24 168 249
246 350 l24 33 -26 10 c-14 5 -26 14 -26 19 0 14 57 59 116 92 28 16 75 57
104 90 30 34 78 77 107 96 30 19 51 38 48 43 -3 4 19 25 47 46 29 20 55 41 57
46 1 5 13 18 25 29 20 19 20 21 4 33 -10 7 -18 17 -18 23 0 5 30 34 68 64 37
30 123 108 192 175 167 161 302 264 346 264 21 0 118 32 202 67 54 22 94 33
113 31 31 -5 56 13 44 32 -14 22 -110 6 -277 -47 -10 -3 -32 0 -50 7 -22 9
-112 14 -270 16 -130 1 -253 7 -274 13 -29 8 -48 7 -85 -5 -69 -23 -84 -17
-83 31 2 44 18 61 94 97 27 13 49 26 50 31 0 4 -18 7 -40 7 -51 0 -110 24
-110 45 0 9 -7 27 -16 40 -10 16 -14 34 -10 50 6 22 3 25 -19 25 -17 0 -29 8
-37 25 -6 14 -15 25 -20 25 -4 0 -17 14 -27 32 -18 28 -24 31 -72 32 -38 1
-55 6 -63 19 -9 15 -5 23 24 46 27 23 35 37 37 70 1 23 10 55 18 71 8 16 15
36 15 45 0 8 3 15 8 15 4 0 37 28 72 63 70 67 157 130 249 179 l56 31 -40 -6
c-85 -13 -274 -125 -414 -247 -31 -26 -117 -86 -191 -132 -224 -140 -313 -199
-350 -232 -19 -17 -74 -49 -122 -71 -49 -22 -90 -47 -93 -56 -3 -10 -23 -33
-45 -53 -42 -38 -162 -81 -253 -90 -28 -3 -72 -18 -104 -36 -30 -17 -57 -29
-59 -27 -6 6 94 86 124 100 12 6 22 14 22 19 0 22 -149 -71 -205 -128 -33 -33
-121 -114 -195 -180 -283 -250 -523 -485 -728 -713 -103 -114 -257 -326 -313
-429 -18 -32 -99 -93 -191 -142 -79 -42 -78 -63 1 -40 41 12 50 6 29 -17 -9
-10 -46 -78 -83 -152 -127 -255 -311 -563 -434 -726 -166 -221 -203 -263 -346
-385 -216 -183 -348 -280 -455 -332 -52 -26 -228 -99 -390 -163 -393 -156
-378 -150 -387 -141 -4 4 -7 76 -5 160 1 140 0 156 -18 179 -11 14 -35 29 -53
33 -17 3 -50 22 -73 40 -46 38 -102 64 -137 64 -35 0 -90 -86 -122 -190 -63
-205 -118 -357 -143 -397 -15 -24 -41 -64 -57 -90 -19 -30 -46 -56 -73 -70
-38 -20 -50 -22 -105 -14 -57 8 -65 12 -107 58 -41 46 -155 240 -152 260 1 4
10 9 21 11 29 5 134 110 128 127 -3 7 -31 19 -63 25 -53 11 -61 10 -127 -16
-43 -17 -84 -26 -106 -24 -100 9 -174 -9 -188 -46 -9 -25 17 -72 47 -83 27 -9
28 -11 19 -51 -21 -93 -62 -143 -127 -156 -52 -10 -93 36 -58 66 21 16 58 133
50 156 -3 10 -13 33 -22 51 -13 26 -13 34 -3 47 8 9 23 16 35 16 14 1 31 16
49 45 28 43 110 113 237 202 63 44 107 60 196 72 27 4 60 14 73 23 18 13 28
14 47 6 13 -6 24 -14 24 -18 0 -3 23 -14 50 -24 28 -10 64 -31 81 -47 27 -25
30 -31 18 -46 -12 -14 -12 -16 0 -12 27 9 36 36 21 64 -14 25 -115 96 -158
109 -29 10 -34 21 -71 157 -16 63 -37 129 -46 145 -8 16 -15 43 -15 59 0 17
-7 55 -15 85 -8 30 -15 74 -15 96 0 23 -9 79 -21 124 -33 133 -31 199 8 293
13 30 14 42 5 63 -19 40 -13 134 12 195 5 12 -1 19 -23 27 -26 9 -61 55 -61
79 0 5 13 23 29 40 20 22 28 39 24 53 -4 13 2 29 14 43 11 12 27 36 36 52 8
17 27 53 41 80 25 46 26 56 20 128 -9 104 14 175 69 220 38 29 40 30 120 24
100 -7 169 -29 220 -68 49 -40 50 -13 1 31 -61 53 -153 85 -278 95 -67 6 -122
27 -207 81 -20 13 -109 57 -197 98 -88 41 -182 90 -208 109 -27 19 -65 42 -84
52 -19 10 -55 34 -80 55 -25 20 -70 49 -100 64 -30 16 -81 48 -112 72 -45 34
-65 43 -95 42 -22 0 -57 9 -80 20 -51 27 -103 85 -97 109 5 19 2 22 -77 56
-20 9 -52 29 -70 45 -19 16 -51 32 -73 35 -38 6 -76 31 -76 49 0 16 -109 131
-143 152 -249 153 -319 219 -338 321 -7 38 -5 42 32 77 48 44 117 63 198 55
54 -6 55 -5 28 9 -19 10 -57 16 -110 16 -73 0 -88 -4 -147 -35 l-65 -34 -180
3 c-99 1 -238 9 -310 18 -71 8 -193 15 -270 14 -104 -1 -170 5 -257 21 -65 11
-152 23 -195 26 -70 4 -300 38 -330 50 -19 7 -161 -21 -178 -35 -12 -10 -21
-7 -55 24 -22 20 -51 36 -64 36 -13 0 -52 13 -87 29 -53 24 -84 30 -174 36
-80 5 -125 13 -165 30 -31 13 -86 26 -125 29 -56 4 -88 14 -163 51 -51 26
-118 55 -148 65 -66 23 -134 89 -134 130 0 26 25 56 65 78 19 11 19 11 -5 11
-14 0 -37 -7 -51 -16z m10011 -2973 c-17 -31 -27 -31 -22 0 3 19 9 27 18 23
10 -4 11 -10 4 -23z m-5291 -1466 c19 -6 -40 -68 -81 -85 -27 -11 -31 -10 -59
21 -17 18 -29 33 -27 34 2 2 26 12 53 23 45 19 71 20 114 7z m-1344 -513 c-3
-5 -18 -12 -33 -16 -16 -3 -59 -28 -97 -55 -71 -52 -102 -65 -69 -29 30 33 72
61 133 85 61 26 75 29 66 15z m3978 -474 c-6 -41 -9 -43 -36 -22 -18 13 -18
15 4 44 28 38 41 29 32 -22z m405 -299 c-2 -6 -10 -14 -16 -16 -7 -2 -10 2 -6
12 7 18 28 22 22 4z m-1053 -105 c42 -20 44 -29 8 -36 -31 -6 -38 -2 -48 31
-8 26 -6 27 40 5z m-4640 -35 c-19 -62 -31 -73 -150 -133 -66 -33 -138 -72
-160 -88 -38 -26 -40 -27 -43 -7 -4 24 -9 25 -29 5 -30 -31 -24 -6 8 35 68 85
192 163 309 194 73 19 72 19 65 -6z m-136 -195 c-36 -39 -72 -65 -109 -81 -30
-13 -61 -26 -67 -29 -28 -12 -10 8 48 53 56 43 167 114 177 114 3 0 -19 -26
-49 -57z m1881 -25 c0 -16 -77 -8 -93 10 -15 17 -14 17 38 8 30 -6 55 -14 55
-18z m-2140 -60 c-26 -21 -40 -23 -40 -5 0 17 54 49 59 35 2 -6 -6 -20 -19
-30z m7281 -21 c-10 -9 -11 -8 -5 6 3 10 9 15 12 12 3 -3 0 -11 -7 -18z
m-7627 -93 c3 -8 2 -12 -4 -9 -6 3 -10 10 -10 16 0 14 7 11 14 -7z m3207 -9
c24 -8 53 -19 64 -25 11 -5 92 -23 180 -40 154 -29 365 -87 365 -99 0 -4 -44
-22 -97 -40 -54 -19 -147 -55 -208 -81 -108 -47 -178 -66 -222 -61 -12 1 -38
-2 -58 -8 l-35 -9 21 29 c23 33 41 47 119 92 55 32 74 65 35 59 -47 -6 -125
-6 -187 2 -58 6 -68 10 -68 27 0 17 41 169 46 169 1 0 21 -7 45 -15z m4609
-75 c6 -11 8 -20 6 -20 -3 0 -10 9 -16 20 -6 11 -8 20 -6 20 3 0 10 -9 16 -20z
m-7075 -650 c-3 -5 -16 -10 -28 -9 -21 0 -21 1 -2 9 28 12 37 12 30 0z m937
-1436 c-12 -8 -31 -32 -42 -52 -16 -32 -19 -34 -20 -14 0 25 50 82 71 82 8 0
3 -7 -9 -16z"/>
</g>
</svg>
