<?xml version="1.0" standalone="no"?>
<!DOCTYPE svg PUBLIC "-//W3C//DTD SVG 20010904//EN"
 "http://www.w3.org/TR/2001/REC-SVG-20010904/DTD/svg10.dtd">
<svg version="1.0" xmlns="http://www.w3.org/2000/svg"
 width="1280.000000pt" height="640.000000pt" viewBox="0 0 1280.000000 640.000000"
 preserveAspectRatio="xMidYMid meet">
<metadata>
Created by potrace 1.15, written by Peter Selinger 2001-2017
</metadata>
<g transform="translate(0.000000,640.000000) scale(0.100000,-0.100000)"
fill="#000000" stroke="none">
<path d="M10390 5741 c-157 -14 -290 -29 -296 -33 -6 -4 -37 -51 -69 -105
-424 -714 -756 -1229 -854 -1321 -31 -30 -149 -86 -320 -153 l-125 -48 -110
29 c-209 55 -611 67 -778 22 -78 -21 -227 -77 -241 -91 -4 -4 82 -43 190 -86
109 -43 214 -85 233 -93 l35 -15 -130 -44 c-231 -78 -508 -137 -847 -178
l-136 -17 -169 67 c-292 117 -370 140 -632 191 -68 13 -243 62 -390 110 -369
119 -545 176 -728 235 -87 28 -227 73 -310 100 -84 27 -223 72 -308 99 -85 28
-225 73 -310 100 -85 28 -224 72 -307 99 -84 27 -224 72 -310 100 -324 104
-493 159 -1323 428 l-850 275 -385 -16 c-532 -24 -763 -47 -842 -87 -70 -36
-98 -98 -59 -133 23 -21 225 -105 851 -356 610 -244 1074 -419 1537 -580 l122
-42 191 -266 c104 -146 189 -266 187 -267 -1 -1 -43 3 -92 8 -109 12 -243 -7
-344 -48 -269 -110 -453 -368 -528 -741 -24 -123 -25 -447 0 -589 112 -653
534 -1216 1038 -1385 l84 -28 5 -57 c5 -50 10 -61 39 -86 48 -39 143 -59 288
-59 188 0 260 24 485 157 90 53 134 86 145 106 21 41 27 124 15 184 -9 41 -8
58 4 91 l16 40 102 7 c276 18 583 65 818 125 84 21 363 109 621 195 257 87
473 155 480 152 6 -2 113 -148 236 -322 l224 -318 -27 -78 c-47 -141 -30 -240
56 -314 80 -68 210 -87 347 -51 75 19 230 90 294 134 67 47 147 135 193 213
47 79 99 227 109 310 l7 57 -53 11 c-105 23 -238 31 -328 21 -113 -13 -192
-39 -320 -106 -57 -30 -107 -51 -111 -47 -13 14 -322 594 -319 597 2 1 117 53
254 116 248 113 720 328 1222 558 l263 120 372 -83 c392 -88 1386 -310 2413
-541 l610 -136 125 12 c357 35 684 117 935 235 100 47 187 108 207 144 11 20
10 25 -9 41 -43 35 -893 228 -2238 509 -714 149 -1115 233 -1237 258 -76 15
-134 30 -130 34 4 3 142 59 307 124 l300 118 70 -12 c39 -6 351 -64 694 -128
l624 -117 316 79 c371 92 384 95 379 100 -8 8 -1314 415 -1538 479 l-85 24 -3
135 -3 135 241 846 c132 466 240 853 240 861 0 18 28 19 -330 -14z m-6405
-2028 c116 -37 212 -69 214 -70 3 -2 -294 -560 -304 -571 -1 -2 -25 -12 -53
-22 l-50 -19 -65 82 c-83 105 -170 194 -278 284 -74 61 -119 115 -304 360
-120 158 -222 293 -227 300 -5 6 186 -53 424 -132 238 -79 528 -174 643 -212z
m-1103 -74 c55 -11 58 -13 112 -89 31 -43 56 -81 56 -83 0 -3 -33 4 -72 15
-390 105 -738 -106 -871 -527 -63 -202 -74 -484 -28 -716 95 -475 377 -893
737 -1095 76 -42 203 -90 267 -99 26 -4 47 -9 47 -11 0 -3 -45 -101 -56 -122
-1 -2 -24 3 -51 11 -519 155 -958 738 -1058 1407 -22 141 -22 398 -1 515 65
367 223 614 469 735 130 63 310 87 449 59z m121 -189 l78 -23 75 -104 c40 -57
71 -103 67 -103 -3 0 -25 11 -49 25 -134 79 -360 115 -494 80 -193 -50 -344
-190 -426 -394 -56 -138 -68 -212 -69 -416 0 -212 11 -282 71 -465 139 -421
449 -751 785 -834 73 -18 211 -21 278 -5 62 14 143 54 200 99 l50 39 68 -24
c37 -13 61 -26 53 -29 -8 -2 -67 -16 -130 -30 -137 -31 -296 -104 -363 -165
-24 -23 -51 -41 -59 -41 -35 0 -173 42 -240 73 -575 265 -950 1095 -787 1742
79 313 259 521 509 590 84 23 282 15 383 -15z m591 -221 c88 -95 168 -198 161
-209 -19 -31 -49 -3 -171 158 -70 92 -132 174 -138 182 -22 30 94 -72 148
-131z m-604 60 c85 -23 195 -73 256 -117 41 -30 217 -265 207 -276 -15 -15
-40 -2 -95 49 -386 358 -857 281 -1002 -164 -36 -109 -46 -179 -46 -310 0
-189 40 -368 120 -536 203 -425 605 -664 904 -535 l46 19 67 -25 c38 -14 74
-27 82 -30 19 -6 -48 -58 -124 -94 -290 -138 -691 41 -947 424 -274 411 -334
938 -146 1299 138 264 386 372 678 296z m-27 -155 c86 -19 200 -70 271 -121
60 -43 156 -125 156 -134 0 -4 -23 -16 -51 -28 l-51 -21 -41 34 c-23 18 -67
47 -97 64 -315 177 -618 37 -695 -322 -23 -104 -16 -315 14 -431 27 -102 115
-280 182 -369 118 -154 321 -276 464 -276 38 0 232 -94 215 -105 -26 -16 -118
-35 -170 -35 -295 0 -618 287 -755 670 -155 435 -49 902 237 1038 107 52 203
62 321 36z m7 -164 c30 -6 79 -22 109 -35 56 -26 181 -105 181 -115 0 -3 -26
-16 -59 -29 l-58 -23 -42 21 c-232 119 -456 9 -520 -254 -19 -78 -15 -237 9
-330 28 -113 97 -247 170 -330 96 -110 179 -192 258 -256 40 -32 67 -59 59
-59 -42 0 -155 46 -220 90 -175 117 -305 314 -368 556 -30 116 -33 315 -6 414
72 267 251 395 487 350z m89 -191 l55 -25 -88 -42 c-48 -23 -97 -42 -107 -42
-31 0 -91 -29 -124 -59 -16 -15 -51 -40 -77 -55 -59 -33 -64 -52 -61 -241 2
-134 4 -145 42 -255 22 -63 38 -116 37 -117 -1 -1 -18 26 -38 60 -98 172 -130
366 -89 530 24 94 41 127 94 184 67 73 118 93 227 90 55 -2 89 -9 129 -28z
m981 -1517 c0 -5 -6 -16 -12 -25 -12 -14 -15 -14 -31 9 l-18 24 31 0 c16 0 30
-4 30 -8z"/>
</g>
</svg>
